<svg width="116" height="42" viewBox="0 0 116 42" fill="none" xmlns="http://www.w3.org/2000/svg">
<path d="M59.7564 40.0083C59.5013 39.9333 59.2913 39.8282 59.1562 39.7082L59.3663 39.3332C59.5163 39.4532 59.6963 39.5432 59.9064 39.6182C60.1314 39.6932 60.3565 39.7232 60.5965 39.7232C60.9116 39.7232 61.1516 39.6782 61.3016 39.5732C61.4516 39.4682 61.5267 39.3332 61.5267 39.1531C61.5267 39.0331 61.4817 38.9281 61.4066 38.8531C61.3166 38.7781 61.2116 38.733 61.0916 38.688C60.9716 38.658 60.7915 38.613 60.5815 38.583C60.2964 38.523 60.0714 38.478 59.9064 38.418C59.7414 38.358 59.5913 38.268 59.4713 38.1329C59.3513 37.9979 59.2913 37.8179 59.2913 37.5928C59.2913 37.3078 59.4113 37.0678 59.6513 36.8877C59.8914 36.7077 60.2364 36.6177 60.6565 36.6177C60.8816 36.6177 61.1066 36.6477 61.3316 36.7077C61.5567 36.7677 61.7367 36.8427 61.8867 36.9477L61.6767 37.3228C61.3916 37.1278 61.0466 37.0227 60.6565 37.0227C60.3565 37.0227 60.1314 37.0828 59.9814 37.1878C59.8314 37.2928 59.7564 37.4278 59.7564 37.6078C59.7564 37.7429 59.8014 37.8479 59.8914 37.9229C59.9814 37.9979 60.0864 38.0579 60.2064 38.1029C60.3265 38.1329 60.5065 38.1779 60.7315 38.223C61.0016 38.283 61.2266 38.328 61.3916 38.388C61.5567 38.448 61.7067 38.523 61.8267 38.658C61.9467 38.7781 62.0067 38.9581 62.0067 39.1831C62.0067 39.4832 61.8867 39.7232 61.6317 39.9033C61.3766 40.0833 61.0316 40.1733 60.5815 40.1733C60.2814 40.1283 60.0114 40.0833 59.7564 40.0083Z" fill="white"/>
<path d="M66.8375 36.8276C67.1075 36.9777 67.3025 37.1877 67.4526 37.4428C67.6026 37.7128 67.6776 38.0129 67.6776 38.3579C67.6776 38.703 67.6026 39.018 67.4526 39.2731C67.3025 39.5281 67.0925 39.7532 66.8375 39.8882C66.5824 40.0382 66.2824 40.1132 65.9523 40.1132C65.6673 40.1132 65.4122 40.0532 65.1872 39.9332C64.9621 39.8132 64.7821 39.6481 64.6321 39.4231V41.3734H64.167V36.6326H64.6171V37.3227C64.7521 37.0977 64.9471 36.9177 65.1722 36.7976C65.3972 36.6776 65.6673 36.6176 65.9523 36.6176C66.2824 36.6026 66.5824 36.6776 66.8375 36.8276ZM66.5824 39.5431C66.7774 39.4381 66.9275 39.2731 67.0475 39.063C67.1525 38.853 67.2125 38.628 67.2125 38.3579C67.2125 38.0879 67.1525 37.8628 67.0475 37.6528C66.9425 37.4428 66.7774 37.2927 66.5824 37.1727C66.3874 37.0527 66.1623 37.0077 65.9223 37.0077C65.6823 37.0077 65.4572 37.0677 65.2622 37.1727C65.0671 37.2927 64.9171 37.4428 64.7971 37.6528C64.6771 37.8628 64.6321 38.0879 64.6321 38.3579C64.6321 38.628 64.6921 38.853 64.7971 39.063C64.9021 39.2731 65.0671 39.4231 65.2622 39.5431C65.4572 39.6481 65.6823 39.7081 65.9223 39.7081C66.1623 39.7081 66.3874 39.6631 66.5824 39.5431Z" fill="white"/>
<path d="M72.9735 38.5081H70.078C70.108 38.8682 70.243 39.1532 70.4981 39.3782C70.7531 39.6033 71.0682 39.7083 71.4432 39.7083C71.6533 39.7083 71.8633 39.6633 72.0434 39.5883C72.2234 39.5133 72.3734 39.3932 72.5084 39.2432L72.7785 39.5433C72.6285 39.7233 72.4334 39.8733 72.2084 39.9633C71.9833 40.0534 71.7283 40.1134 71.4432 40.1134C71.0832 40.1134 70.7681 40.0384 70.4981 39.8883C70.228 39.7383 70.003 39.5283 69.853 39.2582C69.7029 38.9882 69.6279 38.6881 69.6279 38.3431C69.6279 37.998 69.7029 37.698 69.853 37.4279C70.003 37.1579 70.198 36.9478 70.4531 36.7978C70.7081 36.6478 70.9932 36.5728 71.3232 36.5728C71.6533 36.5728 71.9383 36.6478 72.1934 36.7978C72.4484 36.9478 72.6435 37.1579 72.7935 37.4129C72.9435 37.6829 73.0035 37.983 73.0035 38.3281L72.9735 38.5081ZM70.4681 37.3229C70.243 37.5329 70.108 37.818 70.078 38.163H72.5384C72.5084 37.818 72.3734 37.5479 72.1484 37.3229C71.9233 37.1128 71.6383 37.0078 71.3082 37.0078C70.9632 37.0078 70.6931 37.1128 70.4681 37.3229Z" fill="white"/>
<path d="M78.0594 36.978C78.3144 37.233 78.4495 37.5931 78.4495 38.0882V40.0985H77.9844V38.1332C77.9844 37.7731 77.8944 37.503 77.7143 37.308C77.5343 37.113 77.2793 37.023 76.9492 37.023C76.5741 37.023 76.2741 37.128 76.0641 37.353C75.839 37.5781 75.734 37.8781 75.734 38.2682V40.0835H75.2539V36.6179H75.704V37.263C75.824 37.053 76.004 36.8879 76.2291 36.7679C76.4541 36.6479 76.7242 36.5879 77.0092 36.5879C77.4593 36.6029 77.8044 36.7379 78.0594 36.978Z" fill="white"/>
<path d="M84.2108 35.2075V40.0984H83.7607V39.4083C83.6257 39.6483 83.4307 39.8133 83.2056 39.9483C82.9806 40.0684 82.7105 40.1284 82.4255 40.1284C82.0954 40.1284 81.8104 40.0534 81.5403 39.9033C81.2703 39.7533 81.0753 39.5433 80.9252 39.2732C80.7752 39.0032 80.7002 38.7031 80.7002 38.3581C80.7002 38.013 80.7752 37.713 80.9252 37.4429C81.0753 37.1729 81.2853 36.9628 81.5403 36.8278C81.8104 36.6778 82.0954 36.6028 82.4255 36.6028C82.7105 36.6028 82.9656 36.6628 83.1906 36.7828C83.4157 36.9028 83.5957 37.0678 83.7457 37.2929V35.2075H84.2108ZM83.1156 39.5433C83.3107 39.4383 83.4607 39.2732 83.5807 39.0632C83.6857 38.8532 83.7457 38.6281 83.7457 38.3581C83.7457 38.088 83.6857 37.863 83.5807 37.6529C83.4757 37.4429 83.3107 37.2929 83.1156 37.1729C82.9206 37.0678 82.6955 37.0078 82.4555 37.0078C82.2155 37.0078 81.9904 37.0678 81.7954 37.1729C81.6004 37.2779 81.4503 37.4429 81.3303 37.6529C81.2253 37.863 81.1653 38.088 81.1653 38.3581C81.1653 38.6281 81.2253 38.8532 81.3303 39.0632C81.4353 39.2732 81.6004 39.4233 81.7954 39.5433C81.9904 39.6483 82.2155 39.7083 82.4555 39.7083C82.6955 39.7083 82.9206 39.6633 83.1156 39.5433Z" fill="white"/>
<path d="M92.5377 36.8278C92.8077 36.9778 93.0027 37.1879 93.1528 37.4429C93.3028 37.713 93.3778 38.013 93.3778 38.3581C93.3778 38.7031 93.3028 39.0032 93.1528 39.2732C93.0027 39.5433 92.7927 39.7533 92.5377 39.9033C92.2676 40.0534 91.9826 40.1284 91.6525 40.1284C91.3674 40.1284 91.0974 40.0684 90.8724 39.9483C90.6473 39.8283 90.4523 39.6483 90.3173 39.4083V40.0984H89.8672V35.2075H90.3323V37.2929C90.4823 37.0678 90.6623 36.9028 90.8874 36.7828C91.1124 36.6628 91.3674 36.6028 91.6525 36.6028C91.9826 36.6028 92.2826 36.6778 92.5377 36.8278ZM92.2826 39.5433C92.4776 39.4383 92.6277 39.2732 92.7477 39.0632C92.8527 38.8532 92.9127 38.6281 92.9127 38.3581C92.9127 38.088 92.8527 37.863 92.7477 37.6529C92.6427 37.4429 92.4776 37.2929 92.2826 37.1729C92.0876 37.0678 91.8625 37.0078 91.6225 37.0078C91.3824 37.0078 91.1574 37.0678 90.9624 37.1729C90.7673 37.2779 90.6173 37.4429 90.4973 37.6529C90.3923 37.863 90.3323 38.088 90.3323 38.3581C90.3323 38.6281 90.3923 38.8532 90.4973 39.0632C90.6023 39.2732 90.7673 39.4233 90.9624 39.5433C91.1574 39.6483 91.3824 39.7083 91.6225 39.7083C91.8625 39.7083 92.0876 39.6633 92.2826 39.5433Z" fill="white"/>
<path d="M98.6737 38.5081H95.7782C95.8082 38.8682 95.9432 39.1532 96.1983 39.3782C96.4533 39.6033 96.7684 39.7083 97.1434 39.7083C97.3535 39.7083 97.5635 39.6633 97.7436 39.5883C97.9236 39.5133 98.0736 39.3932 98.2086 39.2432L98.4787 39.5433C98.3286 39.7233 98.1336 39.8733 97.9086 39.9633C97.6835 40.0534 97.4285 40.1134 97.1434 40.1134C96.7834 40.1134 96.4683 40.0384 96.1983 39.8883C95.9282 39.7383 95.7032 39.5283 95.5532 39.2582C95.4031 38.9882 95.3281 38.6881 95.3281 38.3431C95.3281 37.998 95.4031 37.698 95.5532 37.4279C95.7032 37.1579 95.8982 36.9478 96.1533 36.7978C96.4083 36.6478 96.6934 36.5728 97.0234 36.5728C97.3385 36.5728 97.6385 36.6478 97.8936 36.7978C98.1486 36.9478 98.3437 37.1579 98.4937 37.4129C98.6437 37.6829 98.7187 37.983 98.7187 38.3281L98.6737 38.5081ZM96.1533 37.3229C95.9282 37.5329 95.7932 37.818 95.7632 38.163H98.2236C98.1936 37.818 98.0586 37.5479 97.8336 37.3229C97.6085 37.1128 97.3235 37.0078 96.9934 37.0078C96.6634 37.0078 96.3933 37.1128 96.1533 37.3229Z" fill="white"/>
<path d="M102.783 39.8882C102.693 39.9633 102.588 40.0233 102.453 40.0683C102.318 40.1133 102.183 40.1283 102.048 40.1283C101.718 40.1283 101.478 40.0383 101.298 39.8582C101.118 39.6782 101.028 39.4382 101.028 39.1081V37.0077H100.413V36.6177H101.028V35.8525H101.493V36.6177H102.543V37.0077H101.493V39.0781C101.493 39.2881 101.538 39.4382 101.643 39.5432C101.748 39.6482 101.898 39.7082 102.093 39.7082C102.183 39.7082 102.288 39.6932 102.378 39.6632C102.468 39.6332 102.543 39.5882 102.618 39.5282L102.783 39.8882Z" fill="white"/>
<path d="M106.669 39.8882C106.579 39.9633 106.474 40.0233 106.339 40.0683C106.204 40.1133 106.069 40.1283 105.934 40.1283C105.604 40.1283 105.364 40.0383 105.184 39.8582C105.004 39.6782 104.914 39.4382 104.914 39.1081V37.0077H104.299V36.6177H104.914V35.8525H105.379V36.6177H106.429V37.0077H105.379V39.0781C105.379 39.2881 105.424 39.4382 105.529 39.5432C105.634 39.6482 105.784 39.7082 105.979 39.7082C106.069 39.7082 106.174 39.6932 106.264 39.6632C106.354 39.6332 106.429 39.5882 106.504 39.5282L106.669 39.8882Z" fill="white"/>
<path d="M111.74 38.5081H108.845C108.875 38.8682 109.01 39.1532 109.265 39.3782C109.52 39.6033 109.835 39.7083 110.21 39.7083C110.42 39.7083 110.63 39.6633 110.81 39.5883C110.99 39.5133 111.14 39.3932 111.275 39.2432L111.545 39.5433C111.395 39.7233 111.2 39.8733 110.975 39.9633C110.75 40.0534 110.495 40.1134 110.21 40.1134C109.85 40.1134 109.535 40.0384 109.265 39.8883C108.995 39.7383 108.77 39.5283 108.62 39.2582C108.47 38.9882 108.395 38.6881 108.395 38.3431C108.395 37.998 108.47 37.698 108.62 37.4279C108.77 37.1579 108.965 36.9478 109.22 36.7978C109.475 36.6478 109.76 36.5728 110.09 36.5728C110.405 36.5728 110.705 36.6478 110.96 36.7978C111.215 36.9478 111.41 37.1579 111.56 37.4129C111.71 37.6829 111.785 37.983 111.785 38.3281L111.74 38.5081ZM109.22 37.3229C108.995 37.5329 108.86 37.818 108.83 38.163H111.29C111.26 37.818 111.125 37.5479 110.9 37.3229C110.675 37.1128 110.39 37.0078 110.06 37.0078C109.73 37.0078 109.445 37.1128 109.22 37.3229Z" fill="white"/>
<path d="M114.951 36.7826C115.176 36.6625 115.431 36.6025 115.761 36.6025V37.0526H115.656C115.296 37.0526 115.011 37.1576 114.801 37.3827C114.591 37.6077 114.486 37.9228 114.486 38.3278V40.0981H114.021V36.6325H114.471V37.3077C114.576 37.0826 114.741 36.9026 114.951 36.7826Z" fill="white"/>
<path d="M0 39.0631V18.3595C0 17.6694 0.270047 17.3394 0.810141 17.3394C1.06519 17.3394 1.26022 17.4294 1.41025 17.6094C1.54527 17.7894 1.62028 18.0445 1.62028 18.3595V20.4149C2.92551 18.3595 4.89085 17.3394 7.50131 17.3394C9.60168 17.3394 11.267 17.9695 12.4672 19.2297C13.6674 20.4899 14.2675 22.2302 14.2675 24.4506C14.2675 25.9509 13.9974 27.2561 13.4423 28.3813C12.8872 29.5065 12.0921 30.3616 11.0719 30.9617C10.0368 31.5618 8.83654 31.8619 7.4563 31.8619C6.22609 31.8619 5.1459 31.6218 4.20073 31.1268C3.25557 30.6317 2.41542 29.8665 1.65029 28.8164V39.0782C1.65029 39.4082 1.57527 39.6483 1.42525 39.8283C1.27522 40.0083 1.08019 40.0983 0.810141 40.0983C0.270047 40.0983 0 39.7533 0 39.0631ZM11.237 28.7113C12.1671 27.6762 12.6172 26.2359 12.6172 24.3906C12.6172 22.6053 12.1671 21.24 11.267 20.3099C10.3668 19.3647 9.06158 18.8996 7.35128 18.8996C5.56597 18.8996 4.17073 19.3947 3.13555 20.3849C2.10037 21.3751 1.59028 22.7253 1.59028 24.4656C1.59028 25.6058 1.83032 26.611 2.3104 27.4961C2.79049 28.3813 3.46561 29.0564 4.35076 29.5515C5.22091 30.0316 6.22609 30.2716 7.36629 30.2716C9.03158 30.2716 10.3068 29.7465 11.237 28.7113Z" fill="white"/>
<path d="M18.9483 31.5918C18.8133 31.4118 18.7383 31.1568 18.7383 30.8417V18.3595C18.7383 17.6694 19.0083 17.3394 19.5484 17.3394C19.8035 17.3394 19.9985 17.4294 20.1485 17.6094C20.2836 17.7894 20.3586 18.0445 20.3586 18.3595V20.2049C20.9587 19.3347 21.6788 18.6746 22.4889 18.2545C23.3141 17.8344 24.2592 17.6094 25.3544 17.6094H25.9995C26.2996 17.6094 26.5246 17.6844 26.6897 17.8194C26.8547 17.9545 26.9297 18.1495 26.9297 18.4045C26.9297 18.9146 26.6147 19.1697 25.9995 19.1697H25.2944C23.7642 19.1697 22.5489 19.6348 21.6638 20.5799C20.7786 21.5251 20.3436 22.8153 20.3436 24.4206V30.8267C20.3436 31.1568 20.2685 31.3968 20.1335 31.5768C19.9985 31.7569 19.8035 31.8469 19.5334 31.8469C19.2634 31.8469 19.0833 31.7719 18.9483 31.5918Z" fill="white"/>
<path d="M32.4207 30.857C31.3705 30.1819 30.5754 29.2967 30.0653 28.1865C29.5402 27.0763 29.2852 25.8911 29.2852 24.6159C29.2852 23.3407 29.5402 22.1555 30.0653 21.0453C30.5904 19.9351 31.3705 19.0349 32.4207 18.3748C33.4709 17.6997 34.7461 17.3696 36.2614 17.3696C37.7616 17.3696 39.0369 17.6997 40.102 18.3748C41.1522 19.0499 41.9474 19.9351 42.4575 21.0453C42.9675 22.1555 43.2376 23.3557 43.2376 24.6159C43.2376 25.8911 42.9825 27.0763 42.4575 28.1865C41.9324 29.2967 41.1522 30.1969 40.102 30.857C39.0519 31.5321 37.7766 31.8622 36.2614 31.8622C34.7461 31.8622 33.4709 31.5321 32.4207 30.857ZM40.132 28.7716C41.1072 27.7814 41.6023 26.3862 41.6023 24.6009C41.6023 22.8156 41.1072 21.4203 40.132 20.4152C39.1569 19.41 37.8667 18.8999 36.2614 18.8999C34.6561 18.8999 33.3659 19.41 32.3907 20.4152C31.4155 21.4203 30.9204 22.8156 30.9204 24.6009C30.9204 26.3862 31.4155 27.7814 32.3907 28.7716C33.3659 29.7618 34.6561 30.2719 36.2614 30.2719C37.8667 30.2719 39.1569 29.7618 40.132 28.7716Z" fill="white"/>
<path d="M59.7109 17.6396C59.8459 17.8196 59.921 18.0746 59.921 18.3897V30.8419C59.921 31.1719 59.8459 31.412 59.7109 31.592C59.5759 31.772 59.3809 31.862 59.1108 31.862C58.8558 31.862 58.6457 31.772 58.5107 31.592C58.3757 31.412 58.3007 31.1569 58.3007 30.8419V18.8698H50.4993V30.8419C50.4993 31.532 50.2443 31.862 49.7192 31.862C49.4641 31.862 49.2541 31.772 49.1041 31.592C48.954 31.412 48.879 31.1569 48.879 30.8419V18.8698H47.5288C46.9137 18.8698 46.5986 18.6297 46.5986 18.1346C46.5986 17.6246 46.9137 17.3695 47.5288 17.3695H48.879V15.8242C48.879 14.174 49.3441 12.8687 50.2743 11.9386C51.2044 10.9934 52.4797 10.5283 54.1149 10.5283C55.1651 10.5283 56.1403 10.7234 57.0105 11.1134C57.8956 11.5035 58.5857 12.0286 59.1108 12.6887C59.2458 12.8837 59.3209 13.0638 59.3209 13.2288C59.3209 13.4538 59.2308 13.6489 59.0358 13.8289C58.9158 13.9639 58.7658 14.0239 58.6007 14.0239C58.4057 14.0239 58.1807 13.8889 57.8956 13.6189C57.4605 13.1388 56.9054 12.7637 56.2303 12.4937C55.5552 12.2236 54.8501 12.0736 54.1149 12.0736C52.9747 12.0736 52.0896 12.3886 51.4445 13.0338C50.7994 13.6639 50.4843 14.564 50.4843 15.7042V17.3545H59.0808C59.3659 17.3695 59.5609 17.4595 59.7109 17.6396Z" fill="white"/>
<path d="M73.648 29.4465C73.648 29.6415 73.573 29.8366 73.438 30.0466C73.0929 30.6017 72.6128 31.0368 71.9827 31.3668C71.3676 31.6969 70.7075 31.8619 70.0324 31.8619C68.9372 31.8619 68.0821 31.4869 67.4519 30.7517C66.8218 30.0166 66.5068 29.0264 66.5068 27.7962V19.1397H65.0515C64.4514 19.1397 64.1514 18.8847 64.1514 18.3746C64.1514 17.8795 64.4514 17.6395 65.0515 17.6395H66.5068V12.6286C66.5068 12.2985 66.5818 12.0585 66.7168 11.8784C66.8518 11.6984 67.0469 11.6084 67.3169 11.6084C67.587 11.6084 67.782 11.6984 67.917 11.8784C68.052 12.0585 68.1271 12.3135 68.1271 12.6286V17.6094H71.8327C72.4328 17.6094 72.7329 17.8495 72.7329 18.3446C72.7329 18.8547 72.4328 19.1097 71.8327 19.1097H68.1271V27.9162C68.1271 29.4765 68.7872 30.2567 70.0924 30.2567C70.5425 30.2567 70.9326 30.1666 71.2776 30.0016C71.6077 29.8366 71.9527 29.5365 72.2678 29.1165C72.5078 28.8464 72.7329 28.7114 72.9429 28.7114C73.0929 28.7114 73.243 28.7714 73.378 28.9064C73.558 29.0564 73.648 29.2365 73.648 29.4465Z" fill="white"/>
<path d="M77.0687 31.4116C76.7236 31.1116 76.5586 30.6915 76.5586 30.1514V15.8539C76.5586 14.5187 76.9487 13.4835 77.7138 12.7484C78.4789 12.0132 79.5441 11.6382 80.9244 11.6382H89.7909C90.361 11.6382 90.7961 11.7732 91.0961 12.0283C91.3962 12.2833 91.5462 12.6434 91.5462 13.1234C91.5462 13.5735 91.3962 13.9336 91.0811 14.1886C90.7661 14.4437 90.331 14.5787 89.7909 14.5787H81.5845C81.2094 14.5787 80.9094 14.6987 80.6843 14.9538C80.4593 15.1938 80.3543 15.5389 80.3543 15.9739V20.2197H87.6155C88.1856 20.2197 88.6207 20.3547 88.9207 20.6098C89.2208 20.8648 89.3708 21.2249 89.3708 21.7049C89.3708 22.155 89.2208 22.5151 88.9057 22.7701C88.5907 23.0252 88.1556 23.1602 87.6155 23.1602H80.3543V30.1664C80.3543 30.6765 80.1742 31.0966 79.8292 31.4116C79.4841 31.7267 79.019 31.8767 78.4489 31.8767C77.8638 31.8617 77.3987 31.7117 77.0687 31.4116Z" fill="#18A68E"/>
<path d="M94.651 14.984C94.2309 14.5939 94.0059 14.0839 94.0059 13.4537C94.0059 12.8236 94.2159 12.3135 94.651 11.9235C95.071 11.5334 95.6411 11.3384 96.3463 11.3384C97.0514 11.3384 97.6215 11.5334 98.0716 11.9235C98.5216 12.3135 98.7467 12.8236 98.7467 13.4537C98.7467 14.0839 98.5216 14.5939 98.0716 14.984C97.6215 15.3741 97.0514 15.5691 96.3463 15.5691C95.6411 15.5691 95.086 15.3741 94.651 14.984ZM95.011 31.4119C94.681 31.1118 94.531 30.6918 94.531 30.1517V22.0653C94.531 21.5402 94.696 21.1201 95.011 20.805C95.3261 20.505 95.7912 20.355 96.3763 20.355C96.9464 20.355 97.3965 20.505 97.7415 20.805C98.0866 21.1051 98.2516 21.5252 98.2516 22.0653V30.1517C98.2516 30.6768 98.0866 31.0968 97.7415 31.4119C97.3965 31.7119 96.9464 31.862 96.3763 31.862C95.7912 31.862 95.3261 31.7119 95.011 31.4119Z" fill="#18A68E"/>
<path d="M103.833 31.4117C103.503 31.1117 103.353 30.6916 103.353 30.1515V8.87778C103.353 8.35269 103.518 7.93261 103.833 7.61756C104.163 7.31751 104.613 7.16748 105.198 7.16748C105.768 7.16748 106.218 7.31751 106.563 7.61756C106.908 7.91761 107.073 8.33768 107.073 8.87778V30.1515C107.073 30.6766 106.908 31.0967 106.563 31.4117C106.218 31.7118 105.768 31.8618 105.198 31.8618C104.613 31.8618 104.163 31.7118 103.833 31.4117Z" fill="#18A68E"/>
<path d="M112.759 31.4118C112.429 31.1118 112.279 30.6917 112.279 30.1516V2.33676C112.279 1.81167 112.444 1.3916 112.759 1.07654C113.089 0.776491 113.54 0.626465 114.125 0.626465C114.695 0.626465 115.145 0.776491 115.49 1.07654C115.835 1.3766 116 1.79667 116 2.33676V30.1516C116 30.6767 115.835 31.0968 115.49 31.4118C115.145 31.7119 114.695 31.8619 114.125 31.8619C113.54 31.8619 113.074 31.7119 112.759 31.4118Z" fill="#18A68E"/>
</svg>
